#!OML:ASF F:\VICON\USERDATA\INSTALL\rory3\rory3.ASF
:FULLY-SPECIFIED
:DEGREES
258
root 5.02096 17.6662 -6.97712 -0.328477 -11.8045 4.71282
lowerback 25.0405 -1.72653 -6.65535
upperback 3.28737 -3.76055 2.75004
thorax -9.63451 -1.49312 8.15529
lowerneck -12.1404 -0.800111 0.0390584
upperneck 23.0854 -0.914537 -1.24762
head 9.24805 -0.587131 -0.543655
rclavicle -2.50469e-014 -7.95139e-016
rhumerus -43.7681 -39.5901 -25.4188
rradius 103.514
rwrist -10.7883
rhand 9.49089 4.02165
rfingers 7.12502
rthumb 34.6433 -22.617
lclavicle -2.50469e-014 -7.95139e-016
lhumerus -46.177 9.18472 70.7489
lradius 54.3872
lwrist 8.68878
lhand -13.2239 47.7231
lfingers 7.12502
lthumb 12.8774 77.3058
rfemur -34.162 0.435274 18.343
rtibia 26.6469
rfoot -14.5376 -20.1745
rtoes 8.6314
lfemur 4.0486 -1.11887 -28.838
ltibia 23.7307
lfoot -16.635 3.05563
ltoes -20.3158
259
root 5.04476 17.6867 -7.14714 -0.289863 -12.0931 4.586
lowerback 25.0059 -1.64821 -6.61782
upperback 3.06235 -3.65622 2.70676
thorax -9.89726 -1.42259 8.06288
lowerneck -11.4127 -0.725914 -0.212098
upperneck 22.8633 -0.799625 -1.09522
head 9.03728 -0.538195 -0.430408
rclavicle 3.598e-014 -4.05521e-014
rhumerus -42.6407 -37.7807 -26.3295
rradius 103.283
rwrist -8.19114
rhand 9.91222 6.01209
rfingers 7.12502
rthumb 35.0431 -20.5339
lclavicle 3.598e-014 -4.05521e-014
lhumerus -46.6047 9.44794 70.7511
lradius 54.6338
lwrist 8.90853
lhand -13.4637 47.5114
lfingers 7.12502
lthumb 12.6462 77.1085
rfemur -34.3551 -0.507875 18.9767
rtibia 27.9097
rfoot -14.4653 -20.1259
rtoes 8.48062
lfemur 3.15308 -0.933468 -28.648
ltibia 24.2119
lfoot -16.7438 3.06608
ltoes -18.5888
260
root 5.06486 17.7025 -7.32771 -0.392442 -12.4204 4.65688
lowerback 25.1689 -1.24027 -6.35699
upperback 3.53743 -3.09172 2.38005
thorax -9.57918 -1.20623 7.34859
lowerneck -13.242 -0.825557 0.173915
upperneck 23.3059 -0.975641 -1.2166
head 9.53218 -0.599139 -0.571486
rclavicle -9.34288e-015 4.21423e-014
rhumerus -41.842 -37.7876 -27.251
rradius 103.15
rwrist -5.22787
rhand 9.80557 7.06025
rfingers 7.12502
rthumb 34.9419 -19.5094
lclavicle -9.34288e-015 4.21423e-014
lhumerus -44.7824 9.08283 71.0704
lradius 54.3864
lwrist 8.96946
lhand -13.777 47.1062
lfingers 7.12502
lthumb 12.3441 76.7217
rfemur -34.4712 -1.20613 19.2926
rtibia 29.4012
rfoot -14.6257 -19.8483
rtoes 9.99659
lfemur 2.23846 -0.630961 -28.6546
ltibia 24.9268
lfoot -16.7668 3.18126
ltoes -17.6573
261
root 5.08221 17.7153 -7.51068 -0.494591 -12.7405 4.4219
lowerback 25.522 -0.925917 -6.02583
upperback 3.55379 -2.62709 2.26029
thorax -9.84579 -0.987399 6.89476
lowerneck -13.5178 -0.843493 0.437268
upperneck 23.4654 -0.991381 -1.49134
head 9.63714 -0.613413 -0.716119
rclavicle -1.53064e-014 2.62396e-014
rhumerus -40.7981 -35.6868 -28.9943
rradius 103.703
rwrist -4.83367
rhand 6.61388 4.1587
rfingers 7.12502
rthumb 31.9081 -23.0656
lclavicle -1.53064e-014 2.62396e-014
lhumerus -44.3895 8.73059 71.2787
lradius 54.569
lwrist 9.096
lhand -13.9908 47.1622
lfingers 7.12502
lthumb 12.138 76.7901
rfemur -34.4833 -1.57696 19.8014
rtibia 31.068
rfoot -14.897 -19.5492
rtoes 11.6384
lfemur 1.23487 -0.287311 -28.2906
ltibia 25.8553
lfoot -16.8872 3.14887
ltoes -16.0305
262
root 5.0982 17.7236 -7.69232 -0.444387 -12.881 4.3049
lowerback 25.8142 -0.786915 -5.97605
upperback 3.45422 -2.44768 2.28784
thorax -10.1415 -0.885855 6.86121
lowerneck -13.6171 -0.821385 0.211781
upperneck 23.5449 -0.885723 -1.56521
head 9.68647 -0.592767 -0.692223
rclavicle -9.54166e-015 -2.06736e-014
rhumerus -39.4572 -34.2118 -30.3851
rradius 103.351
rwrist -3.01334
rhand 6.10809 4.44518
rfingers 7.12502
rthumb 31.4263 -22.8742
lclavicle -9.54166e-015 -2.06736e-014
lhumerus -44.5425 9.07354 71.4762
lradius 54.9126
lwrist 9.06165
lhand -13.9263 47.0356
lfingers 7.12502
lthumb 12.2002 76.6598
rfemur -34.8087 -2.03566 20.1399
rtibia 33.0997
rfoot -14.6481 -19.114
rtoes 12.22
lfemur -0.0689534 -0.0950155 -28.0729
ltibia 26.9353
lfoot -16.8869 3.22527
ltoes -15.2713
263
root 5.12145 17.7459 -7.8674 -0.319528 -13.0446 4.35218
lowerback 25.9904 -0.680882 -5.96718
upperback 3.2528 -2.32131 2.2787
thorax -10.4851 -0.803148 6.82319
lowerneck -13.2695 -0.811451 -0.224399
upperneck 23.435 -0.787567 -1.49249
head 9.58578 -0.576717 -0.578095
rclavicle -3.08116e-014 -5.48646e-014
rhumerus -38.1883 -32.3793 -31.7773
rradius 102.939
rwrist -1.25264
rhand 5.17309 4.33397
rfingers 7.12502
rthumb 30.5351 -23.1551
lclavicle -3.08116e-014 -5.48646e-014
lhumerus -44.7138 9.51183 71.6761
lradius 55.0435
lwrist 8.98936
lhand -13.7309 46.9446
lfingers 7.12502
lthumb 12.3886 76.5576
rfemur -35.1939 -2.48912 20.2148
rtibia 35.2096
rfoot -14.1798 -18.4087
rtoes 10.523
lfemur -1.43959 0.0361433 -28.1153
ltibia 28.019
lfoot -16.7552 3.56764
ltoes -15.394
264
root 5.13658 17.7497 -8.03975 -0.367913 -13.0479 4.63477
lowerback 26.2534 -0.622245 -6.17877
upperback 3.08369 -2.33873 2.1406
thorax -10.8121 -0.78286 6.81594
lowerneck -12.9313 -0.742665 -0.395638
upperneck 23.3297 -0.667683 -1.44184
head 9.4867 -0.529617 -0.514442
rclavicle 5.76476e-015 -7.95139e-016
rhumerus -37.1589 -30.2074 -33.331
rradius 102.591
rwrist 0.30009
rhand 4.33789 4.23555
rfingers 7.12502
rthumb 29.7382 -23.3988
lclavicle 5.76476e-015 -7.95139e-016
lhumerus -44.996 9.80372 71.7393
lradius 55.3327
lwrist 9.089
lhand -13.5008 46.8105
lfingers 7.12502
lthumb 12.6104 76.4099
rfemur -35.4528 -2.72903 19.8658
rtibia 37.5147
rfoot -14.1484 -17.5641
rtoes 8.77554
lfemur -2.67223 0.0389912 -28.3727
ltibia 29.0972
lfoot -16.4835 3.72305
ltoes -14.2843
265
root 5.14246 17.7741 -8.21297 -0.339653 -13.0288 4.52875
lowerback 26.3606 -0.564902 -6.02944
upperback 3.09307 -2.23738 2.05912
thorax -10.8837 -0.74066 6.60645
lowerneck -13.0764 -0.766009 -0.305602
upperneck 23.1409 -0.708703 -1.4794
head 9.44685 -0.543384 -0.546789
rclavicle 3.10104e-014 -2.46493e-014
rhumerus -36.3169 -28.5373 -34.9422
rradius 102.064
rwrist 2.28616
rhand 3.77938 5.0705
rfingers 7.12502
rthumb 29.205 -22.6578
lclavicle 3.10104e-014 -2.46493e-014
lhumerus -45.014 9.80343 71.8729
lradius 55.7292
lwrist 9.26785
lhand -13.5698 47.0746
lfingers 7.12502
lthumb 12.5439 76.6781
rfemur -35.5517 -2.87599 19.9182
rtibia 39.8051
rfoot -14.1873 -16.7825
rtoes 7.19241
lfemur -3.91081 0.128054 -28.1423
ltibia 30.1149
lfoot -16.2326 3.88682
ltoes -15.0509
266
root 5.14482 17.7937 -8.38953 -0.335816 -12.9652 4.42021
lowerback 26.4824 -0.537835 -5.95852
upperback 3.21714 -2.18906 2.03953
thorax -10.816 -0.728781 6.52752
lowerneck -13.6583 -0.718131 -0.27394
upperneck 23.0617 -0.628904 -1.52668
head 9.52935 -0.508624 -0.561674
rclavicle -3.18055e-015 -1.51076e-014
rhumerus -35.1301 -27.1267 -36.8706
rradius 101.268
rwrist 4.77367
rhand 2.61823 5.98186
rfingers 7.12502
rthumb 28.0957 -21.9338
lclavicle -3.18055e-015 -1.51076e-014
lhumerus -44.9516 10.0919 72.027
lradius 56.0701
lwrist 9.4193
lhand -13.8227 47.5074
lfingers 7.12502
lthumb 12.3 77.1257
rfemur -35.5788 -2.87882 19.9118
rtibia 42.0759
rfoot -14.4816 -16.0587
rtoes 7.80611
lfemur -5.17092 0.305841 -27.8675
ltibia 31.217
lfoot -15.9401 3.80383
ltoes -14.5292
267
root 5.15365 17.8063 -8.55997 -0.271611 -12.6589 4.35333
lowerback 26.5796 -0.58377 -5.7735
upperback 3.30775 -2.19984 2.02894
thorax -10.7692 -0.746471 6.41244
lowerneck -14.3425 -0.658998 -0.278778
upperneck 23.1185 -0.533588 -1.53062
head 9.67973 -0.466079 -0.554757
rclavicle 7.95139e-015 -2.94201e-014
rhumerus -34.1134 -25.6498 -38.6293
rradius 100.362
rwrist 7.32195
rhand 1.13575 6.25589
rfingers 7.12502
rthumb 26.6778 -21.884
lclavicle 7.95139e-015 -2.94201e-014
lhumerus -45.0587 10.0702 72.3938
lradius 56.6414
lwrist 9.58379
lhand -13.9734 47.3488
lfingers 7.12502
lthumb 12.1547 76.9757
rfemur -35.5223 -3.14432 19.8162
rtibia 44.1834
rfoot -14.6586 -15.3052
rtoes 7.12729
lfemur -6.52298 0.212459 -27.6904
ltibia 32.4097
lfoot -15.6628 3.66863
ltoes -12.9875
268
root 5.15595 17.8163 -8.71786 -0.337048 -12.57 4.18119
lowerback 26.8877 -0.450184 -5.59311
upperback 3.22844 -1.98049 2.12252
thorax -11.0574 -0.633394 6.35873
lowerneck -14.4697 -0.728287 -0.379491
upperneck 23.1445 -0.567438 -1.66728
head 9.71305 -0.505755 -0.590331
rclavicle -2.38542e-015 -1.82882e-014
rhumerus -33.687 -23.9466 -39.8412
rradius 99.2962
rwrist 9.88761
rhand 0.275939 6.79894
rfingers 7.12502
rthumb 25.8546 -21.4636
lclavicle -2.38542e-015 -1.82882e-014
lhumerus -45.5376 9.79618 72.8844
lradius 57.1642
lwrist 9.43001
lhand -13.865 47.0484
lfingers 7.12502
lthumb 12.2593 76.669
rfemur -35.2135 -3.18973 19.8711
rtibia 46.2245
rfoot -14.3852 -14.9575
rtoes 3.06837
lfemur -7.77935 0.338462 -27.3981
ltibia 33.7209
lfoot -15.3097 3.62775
ltoes -13.2077
269
root 5.14965 17.8276 -8.88076 -0.273869 -12.4086 3.62377
lowerback 27.1342 -0.457479 -5.30744
upperback 3.3359 -1.89535 2.3031
thorax -11.078 -0.60389 6.3785
lowerneck -15.059 -0.689278 -0.13721
upperneck 23.0962 -0.536339 -1.78752
head 9.80636 -0.484422 -0.672206
rclavicle 1.82882e-014 -4.45278e-014
rhumerus -32.8409 -22.4136 -41.5626
rradius 98.0229
rwrist 12.6162
rhand -0.729398 7.74569
rfingers 7.12502
rthumb 24.8916 -20.6536
lclavicle 1.82882e-014 -4.45278e-014
lhumerus -45.6083 9.85986 73.105
lradius 57.3862
lwrist 9.47273
lhand -13.6715 46.8287
lfingers 7.12502
lthumb 12.4458 76.4381
rfemur -34.8334 -2.99049 20.3337
rtibia 48.1313
rfoot -14.4696 -15.003
rtoes 2.07106
lfemur -9.11024 0.449808 -26.6407
ltibia 35.0436
lfoot -14.9431 3.61705
ltoes -15.2493
